<svg width="300" height="300" viewBox="0 0 300 300" fill="none" xmlns="http://www.w3.org/2000/svg">
<path d="M107.298 220.313C117.156 226.039 122.941 236.087 123.647 246.666C124.459 234.543 118.515 222.43 107.298 215.915C96.8299 209.835 84.4039 210.158 74.5596 215.682L77.3274 218.693C86.6648 214.551 97.7891 214.79 107.298 220.313Z" fill="#D06B0E"/>
<path d="M71.4046 166.568C80.5546 150.815 75.202 130.627 59.4493 121.477C57.9437 120.603 56.3975 119.861 54.8243 119.248L54.6328 119.829C66.4777 124.908 74.7333 136.718 74.6276 150.413C74.5235 163.894 66.347 175.423 54.7203 180.45L54.8162 180.752C61.5578 178.141 67.4909 173.305 71.4046 166.568Z" fill="#FBC68C"/>
<path d="M105.565 83.6971C116.565 77.4154 122.577 65.7597 122.181 53.9222L123.619 53.5278C124.126 59.9752 122.747 66.6374 119.253 72.653C110.127 88.3636 90.0231 93.7296 74.2889 84.6812L74.4066 84.5348C83.9413 89.3107 95.61 89.3817 105.565 83.6971Z" fill="#FBC68C"/>
<path d="M227.742 133.432C218.593 149.185 223.945 169.373 239.698 178.523C241.446 179.538 243.25 180.375 245.086 181.039L245.193 180.726C235.935 174.884 229.785 164.565 229.785 152.809C229.785 140.468 236.562 129.709 246.598 124.053L245.066 118.973C238.021 121.512 231.798 126.451 227.742 133.432Z" fill="#D06B0E"/>
<path d="M180.452 228.603C177.164 234.265 175.748 240.499 176.016 246.588L176.658 246.406C177.441 235.923 183.212 225.992 192.989 220.313C202.428 214.83 213.458 214.554 222.752 218.602L224.883 216.275C209.231 207.648 189.475 213.069 180.452 228.603Z" fill="#D06B0E"/>
<path d="M194.492 83.6292C203.038 88.6778 212.932 89.4307 221.667 86.5331C212.48 90.355 201.676 89.992 192.407 84.6084C181.054 78.0136 175.103 65.6852 176.09 53.416L178.299 54.0416C177.888 65.7262 183.717 77.264 194.492 83.6292Z" fill="#FCC98E"/>
<path fill-rule="evenodd" clip-rule="evenodd" d="M74.2817 84.6772C65.6534 94.6697 58.9696 106.388 54.8185 119.245C56.3937 119.859 57.9418 120.601 59.4494 121.477C75.202 130.627 80.5546 150.815 71.4047 166.567C67.4912 173.305 61.5585 178.14 54.8173 180.751C59.0165 193.758 65.8077 205.601 74.5822 215.669C84.4229 210.158 96.838 209.839 107.298 215.915C118.462 222.4 124.403 234.429 123.659 246.494C132.051 248.78 140.883 250 150 250C158.999 250 167.72 248.811 176.016 246.582C175.749 240.495 177.165 234.263 180.452 228.603C189.475 213.069 209.232 207.648 224.885 216.276C233.852 206.151 240.797 194.196 245.089 181.04C243.251 180.376 241.447 179.539 239.698 178.523C223.945 169.373 218.593 149.185 227.743 133.433C231.803 126.443 238.036 121.501 245.091 118.965C240.918 106.171 234.235 94.5115 225.624 84.5677C215.706 90.3527 203.045 90.7874 192.407 84.6084C181.06 78.0174 175.11 65.6994 176.088 53.4372C167.771 51.1956 159.025 50 150 50C140.869 50 132.023 51.2239 123.618 53.5167C124.128 59.9675 122.749 66.6341 119.253 72.6531C110.126 88.3662 90.0169 93.7314 74.2817 84.6772ZM142.038 104.184C145.614 98.1202 154.385 98.1201 157.961 104.184L187.651 154.533C189.817 158.208 189.188 162.888 186.127 165.859L156.438 194.682C152.852 198.164 147.148 198.164 143.562 194.682L113.873 165.859C110.812 162.888 110.183 158.208 112.349 154.533L142.038 104.184Z" fill="url(#paint0_linear_3012_694)"/>
<path d="M142.038 104.184C145.614 98.1203 154.385 98.1203 157.961 104.184L187.651 154.533C189.571 157.791 189.295 161.838 187.075 164.785C187.579 162.293 187.052 159.618 185.441 157.445L157.453 119.69C153.75 114.694 146.268 114.708 142.583 119.717L114.807 157.477C113.113 159.78 112.631 162.64 113.299 165.25C110.741 162.275 110.325 157.965 112.349 154.533L142.038 104.184Z" fill="#FCC98E"/>
<path d="M142.038 106.705C145.614 100.641 154.385 100.641 157.961 106.705L186.965 155.891C188.728 158.882 188.622 162.483 186.956 165.299C187.647 162.665 187.164 159.768 185.441 157.445L157.453 119.689C153.75 114.694 146.268 114.707 142.583 119.717L114.807 157.476C112.936 160.02 112.544 163.244 113.545 166.058C111.413 163.154 111.108 159.158 113.035 155.891L142.038 106.705Z" fill="#D06A0E"/>
<defs>
<linearGradient id="paint0_linear_3012_694" x1="215.308" y1="231.029" x2="135.742" y2="50" gradientUnits="userSpaceOnUse">
<stop stop-color="#E37633"/>
<stop offset="1" stop-color="#FFC06B"/>
</linearGradient>
</defs>
</svg>
